<svg aria-hidden="true" style="position: absolute; width: 0; height: 0; overflow: hidden;" version="1.1" xmlns="http://www.w3.org/2000/svg" xmlns:xlink="http://www.w3.org/1999/xlink">
<defs>
<symbol id="icon-1" viewBox="0 0 21 32">
<path d="M0 0h21.12v32h-21.12z"></path>
</symbol>
<symbol id="icon-2" viewBox="0 0 28 32">
<path d="M0 0h28.16v32h-28.16z"></path>
</symbol>
<symbol id="icon-3" viewBox="0 0 32 32">
<path d="M0 0h32v32h-32z"></path>
</symbol>
<symbol id="icon-quotes" viewBox="0 0 43 32">
<path fill="#e1e1e1" style="fill: var(--color1, #e1e1e1)" d="M32.014 0c1.928 0 3.75 0.52 5.464 1.561s3.107 2.537 4.178 4.488c1.029 1.951 1.543 4.25 1.543 6.894s-0.643 5.225-1.928 7.74c-0.429 0.91-1.2 2.081-2.315 3.512-1.157 1.43-2.228 2.666-3.214 3.707l-4.050 4.098-2.893-4.813c2.063-1.302 3.824-2.855 5.306-4.646l0.030-0.037c1.542-1.821 2.314-3.49 2.314-5.008 0-0.781-0.171-1.41-0.514-1.886-1.5 1.084-3.172 1.626-5.014 1.626-1.328 0-2.593-0.412-3.793-1.236-1.237-0.782-2.237-1.834-2.935-3.078l-0.022-0.043c-0.771-1.258-1.157-2.558-1.157-3.902 0-1.518 0.45-2.97 1.35-4.358 0.866-1.389 2.011-2.526 3.364-3.356l0.044-0.025c1.37-0.824 2.784-1.236 4.242-1.236zM8.936 0c1.928 0 3.75 0.52 5.464 1.561s3.107 2.536 4.178 4.488c1.029 1.951 1.543 4.25 1.543 6.894 0 1.864-0.236 3.534-0.707 5.008-0.472 1.518-1.286 3.1-2.443 4.748-1.114 1.561-2.164 2.862-3.15 3.902-0.986 1.084-2.7 2.883-5.143 5.398l-2.893-4.813c2.063-1.302 3.824-2.855 5.306-4.646l0.030-0.037c1.542-1.821 2.314-3.49 2.314-5.008 0-0.781-0.172-1.41-0.514-1.886-1.5 1.084-3.172 1.626-5.014 1.626-1.328 0-2.593-0.412-3.793-1.236-1.237-0.782-2.237-1.834-2.935-3.078l-0.022-0.043c-0.771-1.258-1.157-2.558-1.157-3.902 0-1.518 0.429-2.97 1.286-4.358 0.866-1.389 2.011-2.526 3.364-3.356l0.045-0.025c1.37-0.824 2.784-1.236 4.242-1.236z"></path>
</symbol>
<symbol id="icon-arrow-right" viewBox="0 0 32 32">
<path d="M0 0h32v32h-32z"></path>
</symbol>
<symbol id="icon-burger" viewBox="0 0 46 32">
<path stroke="#d41443" style="stroke: var(--color2, #d41443)" stroke-linejoin="miter" stroke-linecap="butt" stroke-miterlimit="4" stroke-width="2.2857" d="M0 2.286h45.714M0 16h45.714M0 29.714h45.714"></path>
</symbol>
<symbol id="icon-close" viewBox="0 0 32 32">
<path style="stroke: var(--color3, #fff)" stroke-linejoin="miter" stroke-linecap="butt" stroke-miterlimit="4" stroke-width="2" d="M2.52 2l26.96 28M2 29.48l28-26.96"></path>
</symbol>
<symbol id="icon-circle-white" viewBox="0 0 32 32">
<path fill="#fff" style="fill: var(--color3, #fff)" d="M0 16c0 8.837 7.163 16 16 16s16-7.163 16-16c0-8.837-7.163-16-16-16s-16 7.163-16 16z"></path>
</symbol>
<symbol id="icon-Ellipse-4" viewBox="0 0 32 32">
<path fill="#fff" style="fill: var(--color3, #fff)" d="M32 16c0 8.837-7.163 16-16 16s-16-7.163-16-16c0-8.837 7.163-16 16-16s16 7.163 16 16z"></path>
</symbol>
<symbol id="icon-circle-red" viewBox="0 0 32 32">
<path fill="#c7133e" style="fill: var(--color4, #c7133e)" d="M32 16c0 8.837-7.163 16-16 16s-16-7.163-16-16c0-8.837 7.163-16 16-16s16 7.163 16 16z"></path>
</symbol>
<symbol id="icon-circle-gray" viewBox="0 0 35 32">
<path fill="#d9d9d9" style="fill: var(--color5, #d9d9d9)" d="M33.053 16c0 8.837-7.163 16-16 16s-16-7.163-16-16c0-8.837 7.163-16 16-16s16 7.163 16 16z"></path>
</symbol>
<symbol id="icon-facebook" viewBox="0 0 33 32">
<path   d="M16.47 32c8.837 0 16-7.163 16-16s-7.163-16-16-16c-8.836 0-16 7.163-16 16s7.164 16 16 16z"></path>
<path fill="#fff" style="fill: var(--color3, #fff)" d="M20.916 15.981h-2.61v9.619h-3.955v-9.62h-1.88v-3.38h1.88v-2.187c0-1.565 0.74-4.014 3.99-4.014l2.93 0.012v3.281h-2.126c-0.348 0-0.839 0.176-0.839 0.922v1.99h2.956l-0.346 3.376z"></path>
</symbol>
<symbol id="icon-github" viewBox="0 0 32 32">
<path  d="M32 16c0 8.837-7.163 16-16 16s-16-7.163-16-16c0-8.837 7.163-16 16-16s16 7.163 16 16z"></path>
<path fill="#fff" style="fill: var(--color3, #fff)" d="M16 6.588c-5.17 0-9.412 4.243-9.412 9.412 0 4.412 3.096 8.419 7.206 9.412v-3.114c-0.407 0.090-0.782 0.092-1.197-0.030-0.556-0.165-1.008-0.535-1.343-1.1-0.214-0.36-0.593-0.752-0.988-0.723l-0.097-1.099c0.855-0.073 1.594 0.521 2.033 1.259 0.195 0.328 0.42 0.52 0.708 0.605 0.278 0.082 0.577 0.043 0.926-0.080 0.087-0.698 0.407-0.96 0.648-1.327-2.451-0.366-3.428-1.666-3.816-2.693-0.514-1.363-0.238-3.066 0.67-4.142 0.018-0.020 0.050-0.076 0.038-0.114-0.417-1.259 0.090-2.3 0.11-2.41 0.48 0.142 0.558-0.143 2.088 0.786l0.264 0.159c0.11 0.066 0.076 0.028 0.187 0.020 0.59-0.167 1.268-0.267 1.969-0.278l0.006-0c0.717 0.011 1.404 0.114 2.058 0.299l-0.056-0.014 0.086 0.009c-0.008-0.002 0.023-0.006 0.075-0.037 1.91-1.157 1.842-0.779 2.354-0.945 0.019 0.11 0.52 1.168 0.108 2.41-0.056 0.172 1.656 1.74 0.707 4.257-0.388 1.027-1.365 2.327-3.816 2.693 0.314 0.48 0.692 0.734 0.69 1.722v3.887c4.11-0.993 7.206-5 7.206-9.412 0-5.17-4.242-9.412-9.412-9.412z"></path>
</symbol>
<symbol id="icon-home" viewBox="0 0 35 32">
<path fill="#d31342" style="fill: var(--color7, #d31342)" d="M32.64 15.4c0.256-0.274 0.413-0.644 0.413-1.050 0-0.47-0.21-0.89-0.541-1.173l-0.002-0.002-14.773-12.749c-0.319-0.265-0.733-0.425-1.184-0.425-0.466 0-0.892 0.171-1.218 0.454l0.002-0.002-14.821 13.403c-0.316 0.282-0.515 0.69-0.515 1.145 0 0.42 0.169 0.8 0.443 1.077l-0-0 0.373 0.381c0.613 0.635 1.611 0.709 2.224 0.168l1.107-0.979v14.328c0.006 0.879 0.72 1.589 1.6 1.589 0.005 0 0.009-0 0.014-0h5.775c0.004 0 0.009 0 0.013 0 0.88 0 1.594-0.71 1.6-1.589v-10.025h7.371v10.024c-0.013 0.88 0.624 1.589 1.515 1.589h6.123c0.003 0 0.007 0 0.011 0 0.88 0 1.594-0.71 1.6-1.589v-14.126l0.685 0.592c0.376 0.325 1.168 0.064 1.765-0.587l0.421-0.453z"></path>
</symbol>
<symbol id="icon-telegram" viewBox="0 0 33 32">
<path  d="M32.235 16c0 8.837-7.163 16-16 16s-16-7.163-16-16c0-8.837 7.163-16 16-16s16 7.163 16 16z"></path>
<path fill="#fff" style="fill: var(--color3, #fff)" d="M13.102 18.375l-0.317 4.17c0.454 0 0.651-0.183 0.887-0.401l2.13-1.9 4.415 3.017c0.81 0.42 1.38 0.199 1.599-0.695l2.897-12.673h0.001c0.257-1.118-0.433-1.554-1.222-1.28l-17.032 6.086c-1.162 0.42-1.145 1.026-0.198 1.3l4.355 1.264 10.114-5.907c0.476-0.294 0.91-0.131 0.553 0.163l-8.181 6.856z"></path>
</symbol>
<symbol id="icon-arrow-white" viewBox="0 0 19 32">
<path fill="none" stroke-linejoin="round" stroke-linecap="round" stroke-miterlimit="4" stroke-width="6.4" d="M3.2 3.2l11.552 12.8-11.552 12.8"></path>
</symbol>
<symbol id="icon-arrow-red" viewBox="0 0 19 32">
<path fill="none"   stroke-linejoin="round" stroke-linecap="round" stroke-miterlimit="4" stroke-width="6.4" d="M3.2 3.2l11.552 12.8-11.552 12.8"></path>
</symbol>
<symbol id="icecream-1" viewBox="0 0 32 32">
<path fill="#f9ac82" style="fill: var(--color1, #f9ac82)" d="M16 28.981v0c-0.563 0-1.012-0.456-1.012-1.012v-7.856h2.025v7.856c0 0.563-0.45 1.012-1.012 1.012z"></path>
<path fill="#f8bc95" style="fill: var(--color2, #f8bc95)" d="M15.787 26.356c-0.206 0-0.375-0.169-0.375-0.375v-4.988c0-0.206 0.169-0.375 0.375-0.375s0.375 0.169 0.375 0.375v4.988c0 0.212-0.163 0.375-0.375 0.375z"></path>
<path fill="#f8bc95" style="fill: var(--color2, #f8bc95)" d="M15.787 28.225c-0.206 0-0.375-0.169-0.375-0.375v-0.688c0-0.206 0.169-0.375 0.375-0.375s0.375 0.169 0.375 0.375v0.688c0 0.206-0.163 0.375-0.375 0.375z"></path>
<path fill="#ee3544" style="fill: var(--color3, #ee3544)" d="M17.488 22.206h-2.969c-1.894 0-3.431-1.538-3.431-3.431v-12.325c0-1.894 1.537-3.431 3.431-3.431h2.969c1.894 0 3.431 1.538 3.431 3.431v12.331c0 1.887-1.538 3.425-3.431 3.425z"></path>
<path fill="#1a3f6f" style="fill: var(--color4, #1a3f6f)" d="M17.488 2.644h-2.969c-2.1 0-3.806 1.706-3.806 3.806v12.331c0 2.1 1.706 3.806 3.806 3.806h0.1v5.387c0 0.762 0.625 1.387 1.388 1.387s1.387-0.625 1.387-1.387v-5.387h0.1c2.1 0 3.806-1.706 3.806-3.806v-12.331c-0.006-2.1-1.719-3.806-3.813-3.806zM16.637 27.969c0 0.35-0.288 0.637-0.637 0.637s-0.637-0.288-0.637-0.637v-5.387h1.275v5.387zM20.544 18.775c0 1.688-1.369 3.056-3.056 3.056h-2.969c-1.688 0-3.056-1.369-3.056-3.056v-12.325c0-1.688 1.369-3.056 3.056-3.056h2.969c1.688 0 3.056 1.369 3.056 3.056v12.325z"></path>
<path fill="#f15c5c" style="fill: var(--color5, #f15c5c)" d="M12.256 19.425c-0.206 0-0.375-0.169-0.375-0.375v-12.238c0-1.575 1.281-2.856 2.856-2.856 0.206 0 0.375 0.169 0.375 0.375s-0.169 0.375-0.375 0.375c-1.162 0-2.106 0.944-2.106 2.106v12.238c0 0.206-0.169 0.375-0.375 0.375z"></path>
</symbol>
<symbol id="icecream-2" viewBox="0 0 32 32">
<path fill="#f9ac82" style="fill: var(--color1, #f9ac82)" d="M19.881 19.506l-4.137 9.706h0.019l-4.037-9.675c0 0-1.675-0.281-0.456-1.325v0c0 0 4.231 0.406 8.794 0v0c-0.006 0.006 1.425 0.806-0.181 1.294z"></path>
<path fill="#ee3544" style="fill: var(--color3, #ee3544)" d="M18.106 6.606c0 0 1.119-0.85 1.119-1.581 0-0.925-0.75-1.669-1.669-1.669-0.925 0-1.787 0.8-1.669 1.856 0 0 0.356 0.787 2.219 1.394z"></path>
<path fill="#e93e6f" style="fill: var(--color6, #e93e6f)" d="M20.056 18.219c-1.406 0.119-2.725 0.188-4.344 0.188-1.631 0-3.044-0.069-4.456-0.188 0 0-1.25-2.219 0.688-3.069 0.188-0.081 0.381-0.169 0.569-0.269 0 0-1.238-1.838-1.006-3.412 0.131-0.925 1.2-1.675 2.644-2.044 0 0-4.006-2.55 0.613-6.825 0 0 0.175 1.45 0.544 2.206 0.325 0.669 1.406 1.3 2.2 1.619 1.613 0.6 2.488 1.156 2.644 2.431 0.231 1.881-0.956 3.969-0.956 3.969 1.069 0.431 1.794 1.075 1.906 1.838 0.244 1.637-1.044 3.556-1.044 3.556z"></path>
<path fill="#ef517d" style="fill: var(--color7, #ef517d)" d="M12.869 15.631c-0.725 0.131-1.056 0.662-1.137 0.956-0.056 0.2 0.063 0.406 0.262 0.462 0.031 0.006 0.069 0.012 0.1 0.012 0.162 0 0.313-0.106 0.363-0.275 0-0.006 0.106-0.337 0.55-0.419 0.206-0.038 0.338-0.231 0.3-0.438-0.037-0.2-0.238-0.338-0.438-0.3z"></path>
<path fill="#ef517d" style="fill: var(--color7, #ef517d)" d="M14.563 5.175c0.106-0.181 0.044-0.406-0.131-0.513-0.181-0.106-0.406-0.044-0.512 0.131-0.988 1.694-0.106 3.144 0.5 3.675 0.069 0.063 0.156 0.094 0.244 0.094 0.106 0 0.206-0.044 0.281-0.125 0.137-0.156 0.125-0.394-0.031-0.531-0.050-0.044-1.269-1.162-0.35-2.731z"></path>
<path fill="#ef517d" style="fill: var(--color7, #ef517d)" d="M18.85 9.131c-0.006 0.206 0.156 0.381 0.363 0.387 0.006 0 0.006 0 0.012 0 0.2 0 0.369-0.162 0.375-0.363 0.019-0.631-0.3-1.181-0.925-1.594-0.438-0.281-0.875-0.4-0.894-0.406-0.2-0.050-0.406 0.069-0.456 0.269s0.069 0.406 0.269 0.456c0.006 0 0.344 0.094 0.675 0.306 0.394 0.262 0.594 0.581 0.581 0.944z"></path>
<path fill="#ef517d" style="fill: var(--color7, #ef517d)" d="M14.569 10.344c-0.019 0-0.475 0.012-0.963 0.194-0.7 0.256-1.137 0.719-1.262 1.338-0.037 0.2 0.088 0.394 0.281 0.438 0.006 0 0.006 0 0.012 0 0.2 0.044 0.4-0.094 0.444-0.294 0.069-0.356 0.338-0.619 0.781-0.781 0.369-0.131 0.719-0.144 0.725-0.144 0.206-0.006 0.369-0.175 0.363-0.381 0-0.213-0.175-0.375-0.381-0.369z"></path>
<path fill="#ef517d" style="fill: var(--color7, #ef517d)" d="M20.288 15.125c-0.125-0.619-0.563-1.081-1.262-1.338-0.488-0.175-0.944-0.194-0.962-0.194-0.206-0.006-0.381 0.156-0.381 0.363-0.006 0.206 0.156 0.381 0.363 0.381 0.006 0 0.356 0.012 0.725 0.144 0.45 0.162 0.712 0.425 0.781 0.781 0.044 0.2 0.238 0.338 0.444 0.294 0.006 0 0.006 0 0.012 0 0.2-0.044 0.325-0.238 0.281-0.431z"></path>
<path fill="#f15c5c" style="fill: var(--color5, #f15c5c)" d="M18.175 5.425c-0.019 0-0.031 0-0.050-0.006-0.206-0.025-0.35-0.213-0.325-0.419 0.031-0.231-0.212-0.319-0.288-0.338-0.2-0.056-0.319-0.256-0.262-0.456 0.050-0.2 0.262-0.319 0.462-0.269 0.038 0.013 0.244 0.069 0.438 0.225 0.3 0.231 0.444 0.569 0.394 0.938-0.019 0.188-0.181 0.325-0.369 0.325z"></path>
<path fill="#f8bc95" style="fill: var(--color2, #f8bc95)" d="M15.581 26.506c-0.15 0-0.287-0.087-0.344-0.231l-2.262-5.438c-0.081-0.194 0.012-0.413 0.2-0.488 0.194-0.081 0.412 0.012 0.488 0.2l2.262 5.438c0.081 0.194-0.012 0.413-0.2 0.488-0.044 0.019-0.094 0.031-0.144 0.031z"></path>
<path fill="#1a3f6f" style="fill: var(--color4, #1a3f6f)" d="M20.65 18.006c0.381-0.675 1.063-2.113 0.869-3.431-0.087-0.594-0.488-1.156-1.163-1.619-0.188-0.125-0.387-0.244-0.6-0.35 0.337-0.706 0.994-2.313 0.813-3.831-0.131-1.063-0.706-1.7-1.669-2.206 0.438-0.381 0.7-0.938 0.7-1.538 0-0.556-0.219-1.056-0.581-1.425 0.125-0.212 0.381-0.519 0.856-0.644 0.2-0.050 0.319-0.256 0.269-0.456s-0.256-0.319-0.456-0.269c-0.681 0.175-1.075 0.606-1.281 0.938-0.262-0.119-0.55-0.188-0.856-0.188-0.581 0-1.144 0.256-1.538 0.694-0.188 0.212-0.331 0.456-0.419 0.712-0.275-0.725-0.412-1.856-0.412-1.869-0.019-0.138-0.113-0.256-0.244-0.306s-0.281-0.019-0.381 0.075c-1.675 1.556-2.463 3.081-2.331 4.544 0.1 1.125 0.725 1.937 1.206 2.406-0.412 0.156-0.794 0.35-1.125 0.575-0.65 0.45-1.037 0.988-1.125 1.563-0.188 1.281 0.481 2.675 0.85 3.319-0.063 0.025-0.125 0.050-0.188 0.075-0.613 0.269-1.012 0.681-1.2 1.237-0.25 0.756-0.012 1.569 0.175 2.012-0.169 0.2-0.469 0.625-0.344 1.081 0.094 0.337 0.387 0.581 0.863 0.725l4.025 9.637c0.006 0.056 0.025 0.113 0.063 0.163 0.069 0.106 0.188 0.169 0.313 0.169h0.019c0.125 0 0.244-0.063 0.313-0.169 0.031-0.050 0.056-0.106 0.063-0.163l2.344-5.619c0 0 0 0 0 0l1.675-4.019c0.481-0.144 0.769-0.387 0.863-0.725 0.131-0.469-0.194-0.906-0.363-1.1 0 0 0 0 0 0zM16.575 4.181c0.25-0.281 0.619-0.444 0.981-0.444 0.712 0 1.294 0.581 1.294 1.294 0 0.506-0.294 0.963-0.744 1.175-0.131-0.056-0.269-0.106-0.413-0.162-0.488-0.194-1.031-0.494-1.438-0.813 0-0.019 0-0.037 0-0.056-0.044-0.369 0.069-0.725 0.319-0.994zM11.356 16.25c0.119-0.344 0.375-0.6 0.787-0.781 1.531-0.669 3.937 0.269 4.638 0.575 0.056 0.025 0.081 0.031 0.113 0.044 0.2 0.050 0.406-0.069 0.456-0.275 0.050-0.188-0.056-0.375-0.231-0.444-0.006-0.006-0.019-0.006-0.031-0.012-0.819-0.356-2.669-1.044-4.281-0.831-0.256-0.419-1.044-1.831-0.869-3.031 0.069-0.456 0.475-0.825 0.806-1.050 0.431-0.294 0.969-0.525 1.55-0.681 0.006 0 0.012 0 0.019-0.006 1.012-0.269 2.175-0.313 3.163-0.088 0.2 0.044 0.4-0.081 0.45-0.281 0.044-0.2-0.081-0.4-0.281-0.45-1.063-0.244-2.269-0.213-3.356 0.050-0.331-0.256-1.2-1.037-1.3-2.219-0.094-1.069 0.438-2.213 1.581-3.419 0.094 0.5 0.244 1.144 0.463 1.594 0.381 0.775 1.525 1.456 2.394 1.8 0 0 0 0 0.006 0 0 0 0 0 0.006 0 1.719 0.644 2.281 1.138 2.406 2.125 0.163 1.338-0.462 2.825-0.756 3.444-1.306-0.469-2.894-0.588-4.25-0.281-0.2 0.044-0.331 0.25-0.281 0.45s0.25 0.331 0.45 0.281c1.288-0.294 2.844-0.144 4.050 0.338 0.056 0.019 0.075 0.031 0.137 0.056 0.275 0.119 0.538 0.256 0.762 0.412 0.35 0.238 0.775 0.625 0.85 1.106 0.181 1.25-0.637 2.725-0.906 3.169-1.313 0.1-2.694 0.15-4.113 0.15-1.456 0-2.869-0.056-4.206-0.163-0.169-0.3-0.425-0.994-0.225-1.581zM17.075 15.356c0.006 0 0.019 0.006 0.038 0.012-0.012-0.006-0.025-0.012-0.038-0.012zM17 25.438c-0.387 0.050-0.794 0.075-1.206 0.075-0.45 0-0.881-0.031-1.3-0.087l-0.544-1.3c0.6 0.044 1.219 0.069 1.85 0.069 0.594 0 1.181-0.019 1.75-0.063l-0.55 1.306zM17.863 23.356c-0.663 0.056-1.363 0.087-2.069 0.087-0.744 0-1.475-0.031-2.175-0.094l-0.544-1.306c0.863 0.050 1.762 0.075 2.681 0.075 0.906 0 1.8-0.025 2.656-0.075l-0.55 1.313zM15.75 28.438l-0.925-2.219c0.319 0.031 0.644 0.044 0.969 0.044 0.294 0 0.587-0.012 0.875-0.038l-0.919 2.212zM18.731 21.269c-0.956 0.063-1.956 0.1-2.981 0.1-1.031 0-2.044-0.031-3-0.1l-0.556-1.331c1.144 0.075 2.331 0.113 3.544 0.113s2.406-0.038 3.55-0.113l-0.556 1.331zM20.288 18.906c-0.012 0.050-0.131 0.163-0.475 0.238-1.3 0.1-2.669 0.15-4.069 0.15s-2.769-0.050-4.069-0.15c-0.344-0.081-0.463-0.188-0.475-0.238-0.019-0.069 0.050-0.212 0.137-0.331 1.406 0.113 2.894 0.175 4.425 0.175 1.519 0 2.994-0.056 4.394-0.175 0.081 0.125 0.15 0.262 0.131 0.331z"></path>
</symbol>
<symbol id="icecream-3" viewBox="0 0 32 32">
<path fill="#f9ac82" style="fill: var(--color1, #f9ac82)" d="M16 28.981v0c-0.563 0-1.012-0.456-1.012-1.012v-7.856h2.025v7.856c0 0.563-0.45 1.012-1.012 1.012z"></path>
<path fill="#f8bc95" style="fill: var(--color2, #f8bc95)" d="M15.787 26.356c-0.206 0-0.375-0.169-0.375-0.375v-4.988c0-0.206 0.169-0.375 0.375-0.375s0.375 0.169 0.375 0.375v4.988c0 0.212-0.163 0.375-0.375 0.375z"></path>
<path fill="#f8bc95" style="fill: var(--color2, #f8bc95)" d="M15.787 28.225c-0.206 0-0.375-0.169-0.375-0.375v-0.688c0-0.206 0.169-0.375 0.375-0.375s0.375 0.169 0.375 0.375v0.688c0 0.206-0.163 0.375-0.375 0.375z"></path>
<path fill="#ee3544" style="fill: var(--color3, #ee3544)" d="M17.488 22.206h-2.969c-1.894 0-3.431-1.538-3.431-3.431v-12.325c0-1.894 1.537-3.431 3.431-3.431h2.969c1.894 0 3.431 1.538 3.431 3.431v12.331c0 1.887-1.538 3.425-3.431 3.425z"></path>
<path fill="#1a3f6f" style="fill: var(--color4, #1a3f6f)" d="M17.488 2.644h-2.969c-2.1 0-3.806 1.706-3.806 3.806v12.331c0 2.1 1.706 3.806 3.806 3.806h0.1v5.387c0 0.762 0.625 1.387 1.388 1.387s1.387-0.625 1.387-1.387v-5.387h0.1c2.1 0 3.806-1.706 3.806-3.806v-12.331c-0.006-2.1-1.719-3.806-3.813-3.806zM16.637 27.969c0 0.35-0.288 0.637-0.637 0.637s-0.637-0.288-0.637-0.637v-5.387h1.275v5.387zM20.544 18.775c0 1.688-1.369 3.056-3.056 3.056h-2.969c-1.688 0-3.056-1.369-3.056-3.056v-12.325c0-1.688 1.369-3.056 3.056-3.056h2.969c1.688 0 3.056 1.369 3.056 3.056v12.325z"></path>
<path fill="#f15c5c" style="fill: var(--color5, #f15c5c)" d="M12.256 19.425c-0.206 0-0.375-0.169-0.375-0.375v-12.238c0-1.575 1.281-2.856 2.856-2.856 0.206 0 0.375 0.169 0.375 0.375s-0.169 0.375-0.375 0.375c-1.162 0-2.106 0.944-2.106 2.106v12.238c0 0.206-0.169 0.375-0.375 0.375z"></path>
</symbol>
<symbol id="icecream-4" viewBox="0 0 32 32">
<path fill="#0083bf" style="fill: var(--color8, #0083bf)" d="M25.688 18.25c0 5.35-4.337 9.688-9.688 9.688s-9.688-4.337-9.688-9.688c0-5.35 4.337-9.688 9.688-9.688s9.688 4.337 9.688 9.688z"></path>
<path fill="#f9ac82" style="fill: var(--color1, #f9ac82)" d="M16 28.981v0c-0.563 0-1.012-0.456-1.012-1.012v-7.856h2.025v7.856c0 0.563-0.45 1.012-1.012 1.012z"></path>
<path fill="#f8bc95" style="fill: var(--color2, #f8bc95)" d="M15.787 26.356c-0.206 0-0.375-0.169-0.375-0.375v-4.988c0-0.206 0.169-0.375 0.375-0.375s0.375 0.169 0.375 0.375v4.988c0 0.212-0.163 0.375-0.375 0.375z"></path>
<path fill="#f8bc95" style="fill: var(--color2, #f8bc95)" d="M15.787 28.225c-0.206 0-0.375-0.169-0.375-0.375v-0.688c0-0.206 0.169-0.375 0.375-0.375s0.375 0.169 0.375 0.375v0.688c0 0.206-0.163 0.375-0.375 0.375z"></path>
<path fill="#ffcb05" style="fill: var(--color9, #ffcb05)" d="M17.488 3.019h-1.194c0 0.031 0 0.063 0 0.094 0 0.712-0.431 1.319-1.044 1.587 0.144 0.256 0.231 0.55 0.231 0.862 0 0.956-0.775 1.725-1.725 1.725-0.287 0-0.556-0.069-0.787-0.194-0.113 0.85-0.831 1.5-1.713 1.5-0.056 0-0.113 0-0.169-0.006v10.194c0 1.894 1.537 3.431 3.431 3.431h2.969c1.894 0 3.431-1.538 3.431-3.431v-12.331c0-1.9-1.538-3.431-3.431-3.431z"></path>
<path fill="#ffde2f" style="fill: var(--color10, #ffde2f)" d="M12.256 19.425c-0.206 0-0.375-0.169-0.375-0.375v-9.238c0-0.206 0.169-0.375 0.375-0.375s0.375 0.169 0.375 0.375v9.238c0 0.206-0.169 0.375-0.375 0.375z"></path>
<path fill="#1a3f6f" style="fill: var(--color4, #1a3f6f)" d="M17.488 2.644h-1.163c-0.1 0-0.2 0.044-0.275 0.119-0.069 0.075-0.106 0.175-0.1 0.275 0 0.025 0 0.050 0 0.075 0 0.538-0.319 1.025-0.813 1.244-0.1 0.044-0.175 0.125-0.206 0.225s-0.025 0.213 0.031 0.306c0.119 0.206 0.181 0.438 0.181 0.675 0 0.744-0.606 1.35-1.35 1.35-0.219 0-0.425-0.050-0.619-0.15-0.106-0.056-0.238-0.056-0.344 0s-0.181 0.162-0.2 0.281c-0.088 0.669-0.662 1.175-1.338 1.175-0.050 0-0.1-0.006-0.156-0.006-0.106-0.012-0.213 0.019-0.294 0.094-0.081 0.069-0.125 0.175-0.125 0.281v10.194c0 2.1 1.706 3.806 3.806 3.806h0.1v5.387c0 0.762 0.625 1.387 1.388 1.387s1.387-0.625 1.387-1.387v-5.387h0.1c2.1 0 3.806-1.706 3.806-3.806v-12.331c-0.012-2.1-1.725-3.806-3.819-3.806zM16.637 27.969c0 0.35-0.288 0.637-0.637 0.637s-0.637-0.288-0.637-0.637v-5.387h1.275v5.387zM20.544 18.775c0 1.688-1.369 3.056-3.056 3.056h-2.969c-1.688 0-3.056-1.369-3.056-3.056v-9.813c0.819-0.069 1.519-0.613 1.8-1.369 0.175 0.044 0.35 0.069 0.531 0.069 1.156 0 2.1-0.944 2.1-2.1 0-0.237-0.044-0.475-0.119-0.7 0.5-0.331 0.831-0.869 0.912-1.462h0.806c1.688 0 3.056 1.369 3.056 3.056v12.319z"></path>
<path fill="#ffde2f" style="fill: var(--color10, #ffde2f)" d="M19.663 6.963c-0.206 0-0.375-0.169-0.375-0.375 0-1.106-0.9-2.013-2.012-2.013-0.206 0-0.375-0.169-0.375-0.375s0.169-0.375 0.375-0.375c1.525 0 2.762 1.237 2.762 2.763 0 0.213-0.169 0.375-0.375 0.375z"></path>
</symbol>
<symbol id="icecream-5" viewBox="0 0 32 32">
<path fill="#f9ac82" style="fill: var(--color1, #f9ac82)" d="M11.469 17.637l4.144 9.912h-0.019l4.131-9.913z"></path>
<path fill="#f8bc95" style="fill: var(--color2, #f8bc95)" d="M15.481 24.625c-0.15 0-0.287-0.087-0.344-0.231l-2.262-5.438c-0.081-0.194 0.012-0.413 0.2-0.488 0.194-0.081 0.412 0.012 0.488 0.2l2.262 5.438c0.081 0.194-0.012 0.413-0.2 0.488-0.050 0.025-0.1 0.031-0.144 0.031z"></path>
<path fill="#0083bf" style="fill: var(--color8, #0083bf)" d="M20.975 14.2c-0.15 0-0.288 0.031-0.419 0.088 0.331-0.706 0.512-1.488 0.512-2.319 0-3.025-2.45-5.475-5.475-5.475s-5.475 2.45-5.475 5.475c0 0.831 0.188 1.619 0.512 2.319-0.131-0.056-0.269-0.088-0.419-0.088-0.581 0-1.056 0.475-1.056 1.056s0.475 1.056 1.056 1.056c0.206 0 0.4-0.063 0.563-0.163-0.106 0.163-0.162 0.356-0.162 0.563 0 0.581 0.475 1.056 1.056 1.056 0.356 0 0.675-0.181 0.869-0.45-0.006 0.038-0.006 0.081-0.006 0.119 0 0.581 0.475 1.056 1.056 1.056 0.425 0 0.787-0.25 0.956-0.606-0.006 0.038-0.006 0.075-0.006 0.113 0 0.581 0.475 1.056 1.056 1.056s1.056-0.475 1.056-1.056c0-0.038 0-0.075-0.006-0.113 0.169 0.356 0.531 0.606 0.956 0.606 0.581 0 1.056-0.475 1.056-1.056 0-0.038 0-0.081-0.006-0.119 0.194 0.275 0.506 0.45 0.869 0.45 0.581 0 1.056-0.475 1.056-1.056 0-0.206-0.063-0.4-0.163-0.563 0.163 0.1 0.356 0.163 0.563 0.163 0.581 0 1.056-0.475 1.056-1.056s-0.475-1.056-1.056-1.056z"></path>
<path fill="#0095da" style="fill: var(--color11, #0095da)" d="M11.35 12.981c-0.181 0-0.338-0.131-0.369-0.313-0.2-1.219 0.088-2.438 0.813-3.438 0.719-1 1.787-1.662 3-1.856 0.206-0.031 0.4 0.106 0.431 0.313s-0.106 0.4-0.313 0.431c-1.019 0.169-1.912 0.719-2.513 1.556s-0.844 1.863-0.675 2.881c0.031 0.206-0.106 0.4-0.313 0.431-0.025-0.012-0.044-0.006-0.063-0.006z"></path>
<path fill="#ee3544" style="fill: var(--color3, #ee3544)" d="M19.55 7.219c0 1.036-0.839 1.875-1.875 1.875s-1.875-0.839-1.875-1.875c0-1.036 0.839-1.875 1.875-1.875s1.875 0.839 1.875 1.875z"></path>
<path fill="#f15c5c" style="fill: var(--color5, #f15c5c)" d="M18.481 7.563c-0.019 0-0.031 0-0.050-0.006-0.206-0.025-0.35-0.213-0.325-0.419 0.031-0.231-0.212-0.319-0.288-0.338-0.2-0.056-0.319-0.256-0.262-0.456 0.050-0.2 0.262-0.319 0.462-0.269 0.038 0.013 0.244 0.069 0.438 0.225 0.3 0.231 0.444 0.569 0.394 0.938-0.019 0.188-0.181 0.325-0.369 0.325z"></path>
<path fill="#1a3f6f" style="fill: var(--color4, #1a3f6f)" d="M21.137 13.831c0.2-0.6 0.306-1.225 0.306-1.869 0-1.569-0.625-3-1.631-4.050 0.069-0.219 0.113-0.45 0.113-0.694 0-0.744-0.369-1.406-0.925-1.819 0.137-0.206 0.387-0.475 0.825-0.588 0.2-0.050 0.319-0.256 0.269-0.456s-0.256-0.319-0.456-0.269c-0.712 0.188-1.106 0.644-1.306 0.981-0.206-0.063-0.425-0.094-0.65-0.094-0.837 0-1.575 0.463-1.956 1.15-0.037 0-0.081 0-0.119 0-3.225 0-5.85 2.625-5.85 5.85 0 0.644 0.1 1.269 0.306 1.869-0.713 0.081-1.262 0.688-1.262 1.425 0 0.788 0.644 1.431 1.431 1.431 0.006 0 0.012 0 0.025 0 0 0.006 0 0.019 0 0.025 0 0.644 0.425 1.188 1.006 1.369l3.975 9.512c0.006 0.056 0.025 0.113 0.063 0.163 0.069 0.106 0.188 0.169 0.313 0.169h0.019c0.125 0 0.244-0.063 0.313-0.169 0.031-0.050 0.056-0.106 0.063-0.163l3.962-9.512c0.581-0.181 1.006-0.725 1.006-1.369 0-0.006 0-0.019 0-0.025 0.006 0 0.012 0 0.025 0 0.788 0 1.431-0.644 1.431-1.431-0.025-0.744-0.581-1.35-1.294-1.438zM17.675 5.725c0.212 0 0.413 0.044 0.594 0.125 0.038 0.031 0.075 0.050 0.125 0.069 0.006 0 0.012 0 0.019 0.006 0.456 0.256 0.762 0.744 0.762 1.306 0 0.825-0.675 1.5-1.5 1.5s-1.5-0.675-1.5-1.5 0.675-1.506 1.5-1.506zM15.6 26.556l-3.537-8.462c0.075-0.019 0.144-0.050 0.213-0.081 0.219 0.506 0.725 0.856 1.313 0.856 0.262 0 0.519-0.075 0.738-0.206 0.238 0.456 0.719 0.769 1.269 0.769s1.031-0.313 1.269-0.769c0.219 0.131 0.475 0.206 0.738 0.206 0.587 0 1.087-0.35 1.313-0.856 0.069 0.031 0.137 0.056 0.212 0.081l-3.525 8.462zM20.975 15.938c-0.125 0-0.25-0.037-0.363-0.106-0.15-0.094-0.344-0.069-0.462 0.050-0.125 0.125-0.144 0.319-0.050 0.462 0.069 0.113 0.106 0.238 0.106 0.363 0 0.375-0.306 0.681-0.681 0.681-0.219 0-0.431-0.106-0.556-0.294-0.1-0.137-0.281-0.194-0.438-0.137s-0.256 0.225-0.238 0.394c0.006 0.031 0.006 0.056 0.006 0.075 0 0.375-0.306 0.681-0.681 0.681-0.262 0-0.506-0.156-0.619-0.394-0.075-0.163-0.262-0.25-0.438-0.2s-0.294 0.219-0.269 0.4c0 0.025 0.006 0.050 0.006 0.069 0 0.375-0.306 0.681-0.681 0.681s-0.681-0.306-0.681-0.681c0-0.025 0-0.050 0.006-0.075 0.019-0.181-0.094-0.35-0.275-0.4-0.031-0.012-0.069-0.012-0.1-0.012-0.144 0-0.275 0.081-0.338 0.212-0.113 0.238-0.356 0.394-0.619 0.394-0.375 0-0.681-0.306-0.681-0.681 0-0.025 0-0.050 0.006-0.075 0.019-0.169-0.081-0.331-0.238-0.394-0.162-0.063-0.344-0.006-0.438 0.137-0.125 0.181-0.338 0.294-0.556 0.294-0.375 0-0.681-0.306-0.681-0.681 0-0.125 0.037-0.256 0.106-0.363 0.094-0.15 0.075-0.344-0.050-0.463-0.125-0.125-0.319-0.144-0.463-0.050-0.106 0.069-0.231 0.106-0.363 0.106-0.375 0-0.681-0.306-0.681-0.681s0.306-0.681 0.681-0.681c0.094 0 0.181 0.019 0.269 0.056 0.144 0.063 0.306 0.031 0.419-0.081 0.106-0.113 0.137-0.281 0.069-0.419-0.319-0.681-0.481-1.406-0.481-2.162 0-2.763 2.213-5.019 4.956-5.094-0.019 0.112-0.025 0.231-0.025 0.35 0 1.238 1.006 2.25 2.25 2.25 0.712 0 1.35-0.331 1.762-0.85 0.781 0.894 1.262 2.069 1.262 3.35 0 0.756-0.163 1.481-0.481 2.162-0.069 0.144-0.038 0.306 0.069 0.419s0.275 0.144 0.419 0.081c0.087-0.037 0.175-0.056 0.269-0.056 0.375 0 0.681 0.306 0.681 0.681-0.038 0.375-0.344 0.681-0.719 0.681z"></path>
</symbol>
<symbol id="icecream-6" viewBox="0 0 32 32">
<path fill="#f9ac82" style="fill: var(--color1, #f9ac82)" d="M11.619 20.631l4.138 9.913h-0.019l4.131-9.913z"></path>
<path fill="#f8bc95" style="fill: var(--color2, #f8bc95)" d="M15.625 27.625c-0.15 0-0.287-0.087-0.344-0.231l-2.262-5.438c-0.081-0.194 0.012-0.413 0.2-0.488 0.194-0.081 0.412 0.012 0.488 0.2l2.262 5.438c0.081 0.194-0.012 0.413-0.2 0.488-0.044 0.019-0.094 0.031-0.144 0.031z"></path>
<path fill="#0083bf" style="fill: var(--color8, #0083bf)" d="M21.119 17.194c-0.15 0-0.288 0.031-0.419 0.087 0.331-0.706 0.512-1.488 0.512-2.319 0-3.025-2.45-5.475-5.475-5.475s-5.475 2.45-5.475 5.475c0 0.831 0.188 1.619 0.512 2.319-0.131-0.056-0.269-0.087-0.419-0.087-0.581 0-1.056 0.475-1.056 1.056s0.475 1.056 1.056 1.056c0.206 0 0.4-0.063 0.563-0.163-0.106 0.163-0.162 0.356-0.162 0.563 0 0.581 0.475 1.056 1.056 1.056 0.356 0 0.675-0.181 0.869-0.45-0.006 0.038-0.006 0.081-0.006 0.119 0 0.581 0.475 1.056 1.056 1.056 0.425 0 0.787-0.25 0.956-0.606-0.006 0.038-0.006 0.075-0.006 0.113 0 0.581 0.475 1.056 1.056 1.056s1.056-0.475 1.056-1.056c0-0.038 0-0.075-0.006-0.113 0.169 0.356 0.531 0.606 0.956 0.606 0.581 0 1.056-0.475 1.056-1.056 0-0.038 0-0.081-0.006-0.119 0.194 0.275 0.506 0.45 0.869 0.45 0.581 0 1.056-0.475 1.056-1.056 0-0.206-0.063-0.4-0.163-0.563 0.163 0.1 0.356 0.163 0.563 0.163 0.581 0 1.056-0.475 1.056-1.056s-0.475-1.056-1.056-1.056z"></path>
<path fill="#0095da" style="fill: var(--color11, #0095da)" d="M11.494 15.975c-0.181 0-0.338-0.131-0.369-0.313-0.2-1.219 0.088-2.438 0.813-3.438 0.719-1 1.787-1.662 3-1.856 0.206-0.031 0.4 0.106 0.431 0.313s-0.106 0.4-0.313 0.431c-1.019 0.169-1.912 0.719-2.513 1.556s-0.844 1.863-0.675 2.881c0.031 0.206-0.106 0.4-0.313 0.431-0.025-0.006-0.044-0.006-0.063-0.006z"></path>
<path fill="#ffcb05" style="fill: var(--color9, #ffcb05)" d="M20.262 10.256c-0.125 0-0.244 0.025-0.35 0.075 0.275-0.594 0.431-1.25 0.431-1.95 0-2.537-2.056-4.6-4.6-4.6-2.537 0-4.6 2.056-4.6 4.6 0 0.7 0.156 1.356 0.431 1.95-0.106-0.044-0.225-0.075-0.35-0.075-0.488 0-0.887 0.4-0.887 0.887s0.4 0.887 0.887 0.887c0.175 0 0.338-0.050 0.469-0.137-0.088 0.137-0.137 0.3-0.137 0.475 0 0.488 0.4 0.887 0.887 0.887 0.3 0 0.569-0.15 0.725-0.381-0.006 0.031-0.006 0.069-0.006 0.1 0 0.488 0.4 0.887 0.887 0.887 0.356 0 0.662-0.206 0.8-0.512-0.006 0.031-0.006 0.063-0.006 0.094 0 0.488 0.4 0.887 0.887 0.887s0.888-0.4 0.888-0.887c0-0.031 0-0.063-0.006-0.094 0.144 0.3 0.45 0.512 0.8 0.512 0.488 0 0.887-0.4 0.887-0.887 0-0.031 0-0.069-0.006-0.1 0.163 0.231 0.425 0.381 0.725 0.381 0.488 0 0.887-0.4 0.887-0.887 0-0.175-0.050-0.338-0.137-0.475 0.137 0.088 0.3 0.137 0.469 0.137 0.488 0 0.887-0.4 0.887-0.887s-0.375-0.887-0.863-0.887z"></path>
<path fill="#ffde2f" style="fill: var(--color10, #ffde2f)" d="M12.375 9.287c-0.181 0-0.338-0.131-0.369-0.313-0.169-1.037 0.075-2.081 0.694-2.931 0.613-0.856 1.525-1.419 2.563-1.588 0.206-0.031 0.4 0.106 0.431 0.313s-0.106 0.4-0.313 0.431c-0.838 0.138-1.575 0.594-2.075 1.281-0.5 0.694-0.694 1.537-0.556 2.375 0.031 0.206-0.106 0.4-0.313 0.431-0.019 0-0.037 0-0.063 0z"></path>
<path fill="#ee3544" style="fill: var(--color3, #ee3544)" d="M20.506 4.225c0 1.036-0.839 1.875-1.875 1.875s-1.875-0.839-1.875-1.875c0-1.036 0.839-1.875 1.875-1.875s1.875 0.839 1.875 1.875z"></path>
<path fill="#f15c5c" style="fill: var(--color5, #f15c5c)" d="M19.444 4.563c-0.019 0-0.031 0-0.050-0.006-0.206-0.025-0.35-0.213-0.325-0.419 0.031-0.231-0.212-0.319-0.288-0.337-0.2-0.056-0.319-0.256-0.262-0.456 0.050-0.2 0.262-0.319 0.462-0.269 0.038 0.013 0.244 0.069 0.438 0.225 0.3 0.231 0.444 0.569 0.394 0.938-0.025 0.188-0.188 0.325-0.369 0.325z"></path>
<path fill="#1a3f6f" style="fill: var(--color4, #1a3f6f)" d="M21.288 16.831c0.2-0.6 0.306-1.225 0.306-1.869 0-0.988-0.25-1.919-0.681-2.737 0.369-0.219 0.619-0.625 0.619-1.081 0-0.619-0.45-1.137-1.044-1.244 0.156-0.488 0.238-1 0.238-1.519 0-0.881-0.231-1.713-0.637-2.431 0.488-0.412 0.8-1.031 0.8-1.719 0-0.744-0.369-1.406-0.925-1.819 0.137-0.206 0.387-0.475 0.825-0.587 0.2-0.050 0.319-0.256 0.269-0.456s-0.256-0.319-0.456-0.269c-0.712 0.188-1.106 0.644-1.306 0.981-0.206-0.063-0.425-0.094-0.65-0.094-0.969 0-1.8 0.619-2.113 1.487-0.25-0.038-0.512-0.063-0.775-0.063-2.744 0-4.975 2.231-4.975 4.975 0 0.525 0.081 1.031 0.238 1.519-0.594 0.106-1.044 0.625-1.044 1.244 0 0.463 0.25 0.863 0.619 1.081-0.438 0.819-0.681 1.75-0.681 2.737 0 0.644 0.1 1.269 0.306 1.869-0.713 0.081-1.262 0.688-1.262 1.425 0 0.794 0.656 1.444 1.456 1.431 0 0.006 0 0.019 0 0.025 0 0.644 0.425 1.188 1.006 1.369l3.975 9.512c0.006 0.056 0.025 0.113 0.063 0.163 0.069 0.106 0.188 0.169 0.313 0.169h0.019c0.125 0 0.244-0.063 0.313-0.169 0.031-0.050 0.056-0.106 0.063-0.163l3.962-9.512c0.581-0.181 1.006-0.725 1.006-1.369 0-0.006 0-0.019 0-0.025 0.006 0 0.012 0 0.025 0 0.788 0 1.431-0.644 1.431-1.431-0.038-0.744-0.594-1.35-1.3-1.431zM18.631 2.725c0.206 0 0.406 0.044 0.587 0.119 0.038 0.031 0.081 0.056 0.131 0.069 0.006 0 0.012 0.006 0.025 0.006 0.45 0.256 0.756 0.744 0.756 1.3 0 0.825-0.675 1.5-1.5 1.5s-1.5-0.675-1.5-1.5c0.006-0.819 0.675-1.494 1.5-1.494zM11.225 10.631c0.069 0 0.137 0.012 0.2 0.044 0.144 0.063 0.306 0.031 0.419-0.081 0.106-0.113 0.137-0.281 0.069-0.419-0.262-0.563-0.4-1.162-0.4-1.794 0-2.331 1.894-4.225 4.225-4.225 0.219 0 0.431 0.019 0.644 0.050 0 0.006 0 0.019 0 0.025 0 1.237 1.006 2.25 2.25 2.25 0.281 0 0.55-0.050 0.8-0.15 0.337 0.606 0.531 1.306 0.531 2.050 0 0.625-0.131 1.231-0.4 1.794-0.069 0.144-0.038 0.306 0.069 0.419s0.275 0.144 0.419 0.081c0.063-0.025 0.131-0.044 0.2-0.044 0.281 0 0.512 0.231 0.512 0.512s-0.231 0.512-0.512 0.512c-0.094 0-0.188-0.025-0.269-0.081-0.15-0.094-0.344-0.069-0.462 0.050-0.125 0.125-0.144 0.319-0.050 0.463 0.050 0.081 0.081 0.175 0.081 0.275 0 0.281-0.231 0.512-0.512 0.512-0.169 0-0.325-0.081-0.419-0.219-0.1-0.137-0.281-0.194-0.438-0.137-0.163 0.063-0.256 0.219-0.238 0.394 0 0.025 0.006 0.044 0.006 0.056 0 0.281-0.231 0.512-0.512 0.512-0.2 0-0.381-0.119-0.462-0.294-0.075-0.162-0.262-0.25-0.438-0.2s-0.294 0.219-0.275 0.4c0 0.019 0 0.037 0 0.056 0 0.281-0.231 0.512-0.512 0.512s-0.512-0.231-0.512-0.512c0-0.019 0-0.037 0-0.056 0.019-0.181-0.094-0.35-0.275-0.4-0.031-0.012-0.069-0.012-0.1-0.012-0.144 0-0.275 0.081-0.338 0.213-0.088 0.181-0.269 0.294-0.463 0.294-0.281 0-0.512-0.231-0.512-0.512 0-0.019 0-0.037 0.006-0.056 0.019-0.169-0.081-0.331-0.238-0.394-0.162-0.063-0.344-0.006-0.438 0.137-0.094 0.137-0.256 0.219-0.419 0.219-0.281 0-0.512-0.231-0.512-0.512 0-0.094 0.025-0.194 0.081-0.275 0.094-0.15 0.075-0.344-0.050-0.463-0.125-0.125-0.319-0.144-0.463-0.050-0.081 0.050-0.175 0.081-0.269 0.081-0.281 0-0.512-0.231-0.512-0.512-0.025-0.287 0.206-0.512 0.488-0.512zM15.75 29.55l-3.537-8.463c0.075-0.019 0.144-0.050 0.213-0.081 0.219 0.506 0.725 0.856 1.313 0.856 0.262 0 0.519-0.075 0.738-0.206 0.238 0.456 0.719 0.769 1.269 0.769s1.031-0.313 1.269-0.769c0.219 0.131 0.475 0.206 0.738 0.206 0.587 0 1.087-0.35 1.313-0.856 0.069 0.031 0.137 0.056 0.212 0.081l-3.525 8.462zM21.119 18.931c-0.125 0-0.25-0.038-0.363-0.106-0.15-0.094-0.344-0.069-0.462 0.050-0.125 0.125-0.144 0.319-0.050 0.462 0.069 0.113 0.106 0.238 0.106 0.363 0 0.375-0.306 0.681-0.681 0.681-0.219 0-0.431-0.106-0.556-0.294-0.1-0.137-0.281-0.194-0.438-0.137-0.163 0.063-0.256 0.225-0.238 0.394 0.006 0.031 0.006 0.056 0.006 0.075 0 0.375-0.306 0.681-0.681 0.681-0.262 0-0.506-0.156-0.619-0.394-0.075-0.163-0.262-0.25-0.438-0.2s-0.294 0.219-0.269 0.4c0 0.025 0.006 0.050 0.006 0.069 0 0.375-0.306 0.681-0.681 0.681s-0.681-0.306-0.681-0.681c0-0.025 0-0.050 0.006-0.075 0.019-0.181-0.094-0.35-0.275-0.4-0.031-0.012-0.069-0.012-0.1-0.012-0.144 0-0.275 0.081-0.338 0.212-0.113 0.238-0.356 0.394-0.619 0.394-0.375 0-0.681-0.306-0.681-0.681 0-0.025 0-0.050 0.006-0.075 0.019-0.169-0.081-0.331-0.238-0.394-0.162-0.063-0.344-0.006-0.438 0.137-0.125 0.181-0.338 0.294-0.556 0.294-0.375 0-0.681-0.306-0.681-0.681 0-0.125 0.037-0.256 0.106-0.363 0.094-0.15 0.075-0.344-0.050-0.462-0.125-0.125-0.319-0.144-0.463-0.050-0.106 0.069-0.231 0.106-0.363 0.106-0.375 0-0.681-0.306-0.681-0.681s0.306-0.681 0.681-0.681c0.094 0 0.181 0.019 0.269 0.056 0.144 0.063 0.306 0.031 0.419-0.081 0.106-0.113 0.137-0.281 0.069-0.419-0.319-0.681-0.481-1.406-0.481-2.162 0-0.838 0.206-1.631 0.569-2.331 0.119 0.569 0.631 1 1.238 1 0.169 0 0.331-0.031 0.481-0.094 0.206 0.419 0.637 0.7 1.131 0.7 0.213 0 0.419-0.056 0.6-0.15 0.219 0.375 0.625 0.625 1.088 0.625s0.869-0.25 1.088-0.625c0.181 0.1 0.387 0.15 0.6 0.15 0.494 0 0.925-0.287 1.131-0.7 0.15 0.063 0.313 0.094 0.481 0.094 0.606 0 1.113-0.431 1.238-1 0.363 0.7 0.569 1.494 0.569 2.331 0 0.756-0.163 1.481-0.481 2.163-0.069 0.144-0.038 0.306 0.069 0.419s0.275 0.144 0.419 0.081c0.087-0.038 0.175-0.056 0.269-0.056 0.375 0 0.681 0.306 0.681 0.681-0.044 0.387-0.35 0.688-0.725 0.688z"></path>
</symbol>
<symbol id="icon-close-modal" viewBox="0 0 18 18">
<path d="M15 4.20857L13.7914 3L9 7.79143L4.20857 3L3 4.20857L7.79143 9L3 13.7914L4.20857 15L9 10.2086L13.7914 15L15 13.7914L10.2086 9L15 4.20857z"></symbol>
</defs>
</svg>
